<svg width="131" height="87" viewBox="0 0 131 87" fill="none" xmlns="http://www.w3.org/2000/svg">
<path d="M58.8385 13.2174C42.6829 16.7187 28.8246 23.3148 19.4766 31.1247C10.1081 38.9518 5.37524 47.8966 7.15731 56.1204C8.9396 64.3443 16.9512 70.528 28.7197 73.7743C40.4622 77.0134 55.8079 77.2804 71.9635 73.7792C88.1193 70.2779 101.978 63.6816 111.326 55.8717C120.695 48.0445 125.428 39.0989 123.645 30.875C121.863 22.6513 113.852 16.4684 102.083 13.2221C90.3406 9.98296 74.9943 9.71606 58.8385 13.2174Z" stroke="white"/>
<path d="M24.1758 48V37.9922H25.8027V48H24.1758ZM29.501 42.5518C29.6605 42.1234 29.8701 41.8066 30.1299 41.6016C30.3942 41.3965 30.7201 41.2939 31.1074 41.2939C31.3171 41.2939 31.5221 41.319 31.7227 41.3691C31.9277 41.4193 32.1283 41.4922 32.3242 41.5879L31.791 42.8457C31.6634 42.7546 31.5244 42.6885 31.374 42.6475C31.2282 42.6019 31.0641 42.5791 30.8818 42.5791C30.3896 42.5791 30.0365 42.7773 29.8223 43.1738C29.6081 43.5658 29.501 44.2266 29.501 45.1562V48H28.0176V41.5059H29.501V42.5518ZM33.042 38.7168C33.042 38.4661 33.1331 38.2497 33.3154 38.0674C33.5023 37.8851 33.7233 37.7939 33.9785 37.7939C34.2428 37.7939 34.4616 37.8828 34.6348 38.0605C34.8125 38.2337 34.9014 38.4525 34.9014 38.7168C34.9014 38.9811 34.8125 39.2044 34.6348 39.3867C34.457 39.5645 34.2383 39.6533 33.9785 39.6533C33.7233 39.6533 33.5023 39.5622 33.3154 39.3799C33.1331 39.193 33.042 38.972 33.042 38.7168ZM33.2402 48V41.5195H34.7236V48H33.2402ZM36.1045 46.8242L37.335 46.1543C37.4261 46.4779 37.5947 46.724 37.8408 46.8926C38.0869 47.0612 38.4036 47.1455 38.791 47.1455C39.1237 47.1455 39.3835 47.0703 39.5703 46.9199C39.7617 46.765 39.8574 46.5553 39.8574 46.291C39.8574 45.9401 39.5202 45.6393 38.8457 45.3887C38.6178 45.3066 38.4424 45.2383 38.3193 45.1836C37.6266 44.8965 37.1413 44.6048 36.8633 44.3086C36.5898 44.0124 36.4531 43.6523 36.4531 43.2285C36.4531 42.6497 36.6787 42.1803 37.1299 41.8203C37.5856 41.4603 38.1872 41.2803 38.9346 41.2803C39.4359 41.2803 39.8643 41.3737 40.2197 41.5605C40.5798 41.7428 40.8418 42.0049 41.0059 42.3467L39.9531 43.0713C39.8757 42.8662 39.7389 42.7044 39.543 42.5859C39.3516 42.4629 39.1283 42.4014 38.873 42.4014C38.5905 42.4014 38.3626 42.4697 38.1895 42.6064C38.0208 42.7386 37.9365 42.9163 37.9365 43.1396C37.9365 43.4769 38.3193 43.7845 39.085 44.0625C39.3265 44.1491 39.5133 44.2197 39.6455 44.2744C40.2425 44.5114 40.6686 44.7803 40.9238 45.0811C41.1836 45.3773 41.3135 45.7487 41.3135 46.1953C41.3135 46.8424 41.0788 47.3506 40.6094 47.7197C40.14 48.0843 39.4928 48.2666 38.668 48.2666C38.0345 48.2666 37.5081 48.1481 37.0889 47.9111C36.6696 47.6742 36.3415 47.3118 36.1045 46.8242ZM42.8105 48V37.4043H44.2051V42.5791C44.5013 42.1325 44.8499 41.8066 45.251 41.6016C45.652 41.3965 46.1396 41.2939 46.7139 41.2939C47.1969 41.2939 47.6071 41.3714 47.9443 41.5264C48.2861 41.6768 48.5527 41.9023 48.7441 42.2031C48.8581 42.3809 48.9401 42.5882 48.9902 42.8252C49.0404 43.0622 49.0654 43.4769 49.0654 44.0693V48H47.5684V44.6709C47.5684 43.8187 47.4635 43.2536 47.2539 42.9756C47.0488 42.693 46.682 42.5518 46.1533 42.5518C45.807 42.5518 45.4971 42.6156 45.2236 42.7432C44.9548 42.8708 44.7428 43.0508 44.5879 43.2832C44.4785 43.4382 44.401 43.6387 44.3555 43.8848C44.3145 44.1263 44.2939 44.5137 44.2939 45.0469V48H42.8105ZM54.1992 37.9922H55.8057L57.6992 43.0439C57.8223 43.3766 57.9248 43.6683 58.0068 43.9189C58.0934 44.1696 58.1686 44.4043 58.2324 44.623C58.3919 44.0944 58.5583 43.5771 58.7314 43.0713C58.7542 43.0075 58.7702 42.9642 58.7793 42.9414L60.7891 37.5957L62.9082 43.0439C63.0085 43.3083 63.1019 43.5726 63.1885 43.8369C63.2796 44.1012 63.3639 44.3678 63.4414 44.6367C63.487 44.4316 63.5485 44.2061 63.626 43.96C63.7035 43.7139 63.8037 43.4222 63.9268 43.085L65.8066 37.9922H67.4268L63.5508 48.3896L61.2676 42.6816C61.1673 42.4264 61.0762 42.1826 60.9941 41.9502C60.9121 41.7132 60.8392 41.4899 60.7754 41.2803C60.6979 41.5492 60.6204 41.8021 60.543 42.0391C60.4655 42.2715 60.3857 42.4948 60.3037 42.709L58.0615 48.3896L54.1992 37.9922ZM68.418 48V37.4043H69.8125V42.5791C70.1087 42.1325 70.4574 41.8066 70.8584 41.6016C71.2594 41.3965 71.7471 41.2939 72.3213 41.2939C72.8044 41.2939 73.2145 41.3714 73.5518 41.5264C73.8936 41.6768 74.1602 41.9023 74.3516 42.2031C74.4655 42.3809 74.5475 42.5882 74.5977 42.8252C74.6478 43.0622 74.6729 43.4769 74.6729 44.0693V48H73.1758V44.6709C73.1758 43.8187 73.071 43.2536 72.8613 42.9756C72.6562 42.693 72.2894 42.5518 71.7607 42.5518C71.4144 42.5518 71.1045 42.6156 70.8311 42.7432C70.5622 42.8708 70.3503 43.0508 70.1953 43.2832C70.0859 43.4382 70.0085 43.6387 69.9629 43.8848C69.9219 44.1263 69.9014 44.5137 69.9014 45.0469V48H68.418ZM76.5186 38.7168C76.5186 38.4661 76.6097 38.2497 76.792 38.0674C76.9788 37.8851 77.1999 37.7939 77.4551 37.7939C77.7194 37.7939 77.9382 37.8828 78.1113 38.0605C78.2891 38.2337 78.3779 38.4525 78.3779 38.7168C78.3779 38.9811 78.2891 39.2044 78.1113 39.3867C77.9336 39.5645 77.7148 39.6533 77.4551 39.6533C77.1999 39.6533 76.9788 39.5622 76.792 39.3799C76.6097 39.193 76.5186 38.972 76.5186 38.7168ZM76.7168 48V41.5195H78.2002V48H76.7168ZM79.5811 46.8242L80.8115 46.1543C80.9027 46.4779 81.0713 46.724 81.3174 46.8926C81.5635 47.0612 81.8802 47.1455 82.2676 47.1455C82.6003 47.1455 82.86 47.0703 83.0469 46.9199C83.2383 46.765 83.334 46.5553 83.334 46.291C83.334 45.9401 82.9967 45.6393 82.3223 45.3887C82.0944 45.3066 81.9189 45.2383 81.7959 45.1836C81.1032 44.8965 80.6178 44.6048 80.3398 44.3086C80.0664 44.0124 79.9297 43.6523 79.9297 43.2285C79.9297 42.6497 80.1553 42.1803 80.6064 41.8203C81.0622 41.4603 81.6637 41.2803 82.4111 41.2803C82.9124 41.2803 83.3408 41.3737 83.6963 41.5605C84.0563 41.7428 84.3184 42.0049 84.4824 42.3467L83.4297 43.0713C83.3522 42.8662 83.2155 42.7044 83.0195 42.5859C82.8281 42.4629 82.6048 42.4014 82.3496 42.4014C82.0671 42.4014 81.8392 42.4697 81.666 42.6064C81.4974 42.7386 81.4131 42.9163 81.4131 43.1396C81.4131 43.4769 81.7959 43.7845 82.5615 44.0625C82.8031 44.1491 82.9899 44.2197 83.1221 44.2744C83.7191 44.5114 84.1452 44.7803 84.4004 45.0811C84.6602 45.3773 84.79 45.7487 84.79 46.1953C84.79 46.8424 84.5553 47.3506 84.0859 47.7197C83.6165 48.0843 82.9694 48.2666 82.1445 48.2666C81.5111 48.2666 80.9847 48.1481 80.5654 47.9111C80.1462 47.6742 79.818 47.3118 79.5811 46.8242ZM86.2871 48V37.4043H87.7705V44.2061L90.4844 41.5195H92.3164L89.377 44.377L92.5967 48H90.6826L87.7705 44.6572V48H86.2871ZM99.7607 44.9785H94.5791C94.6156 45.5846 94.7956 46.0586 95.1191 46.4004C95.4427 46.7376 95.8734 46.9062 96.4111 46.9062C96.8896 46.9062 97.2884 46.806 97.6074 46.6055C97.9264 46.4049 98.2044 46.0814 98.4414 45.6348L99.6924 46.332C99.3278 46.9837 98.8766 47.4691 98.3389 47.7881C97.8011 48.1071 97.1699 48.2666 96.4453 48.2666C95.4062 48.2666 94.5791 47.9499 93.9639 47.3164C93.3486 46.6829 93.041 45.8376 93.041 44.7803C93.041 43.764 93.3577 42.93 93.9912 42.2783C94.6292 41.6221 95.4473 41.2939 96.4453 41.2939C97.4889 41.2939 98.3024 41.5924 98.8857 42.1895C99.4691 42.7865 99.7607 43.6227 99.7607 44.6982V44.9785ZM98.2227 43.9805C98.1634 43.5156 97.9857 43.1624 97.6895 42.9209C97.3932 42.6748 96.9876 42.5518 96.4727 42.5518C95.985 42.5518 95.5931 42.6702 95.2969 42.9072C95.0007 43.1442 94.7933 43.502 94.6748 43.9805H98.2227ZM102.427 51.0488H100.902L102.68 47.4395L100.301 41.5195H101.941L103.131 44.876C103.199 45.0811 103.258 45.2907 103.309 45.5049C103.363 45.7145 103.407 45.9287 103.438 46.1475C103.498 45.9196 103.639 45.5573 103.862 45.0605L103.896 44.9785L105.496 41.5195H107.103L102.427 51.0488Z" fill="white"/>
</svg>
