<svg width="49" height="39" viewBox="0 0 49 39" fill="none" xmlns="http://www.w3.org/2000/svg">
<path d="M14.1 17.42C14.204 17.3507 14.2907 17.368 14.36 17.472C14.464 17.576 14.464 17.68 14.36 17.784C13.7707 18.304 13.112 18.7373 12.384 19.084C11.6907 19.4653 10.9453 19.7427 10.148 19.916C9.38533 20.0893 8.588 20.176 7.756 20.176C7.37467 20.176 6.99333 20.1587 6.612 20.124C6.404 20.0893 6.196 20.072 5.988 20.072C5.884 20.0373 5.78 20.02 5.676 20.02C5.676 20.0547 5.65867 20.124 5.624 20.228C5.624 20.2973 5.60667 20.4707 5.572 20.748C5.53733 21.0253 5.50267 21.3373 5.468 21.684C5.43333 21.996 5.34667 22.6373 5.208 23.608C5 25.0293 4.80933 26.3293 4.636 27.508C4.49733 28.548 4.30667 29.8307 4.064 31.356C3.96 31.98 3.83867 32.6213 3.7 33.28C3.63067 33.8347 3.50933 34.476 3.336 35.204C3.26667 35.516 3.19733 35.8453 3.128 36.192C3.024 36.5387 2.92 36.8507 2.816 37.128C2.74667 37.336 2.69467 37.492 2.66 37.596C2.62533 37.7 2.59067 37.7867 2.556 37.856C2.48667 37.96 2.41733 38.0467 2.348 38.116C2.31333 38.1853 2.27867 38.2373 2.244 38.272C2.14 38.3067 2.036 38.3413 1.932 38.376C1.86267 38.376 1.79333 38.3587 1.724 38.324C1.68933 38.324 1.63733 38.3067 1.568 38.272C1.49867 38.2373 1.44667 38.168 1.412 38.064C1.34267 37.9947 1.29067 37.908 1.256 37.804C1.22133 37.7 1.204 37.596 1.204 37.492C1.13467 37.2147 1.08267 36.8853 1.048 36.504C1.01333 36.1573 0.996 35.828 0.996 35.516C0.961333 34.8573 0.961333 34.1987 0.996 33.54C0.996 33.124 1.01333 32.7947 1.048 32.552V32.032C1.08267 31.8587 1.1 31.7027 1.1 31.564C1.16933 30.94 1.256 30.2813 1.36 29.588C1.53333 28.3747 1.81067 27.092 2.192 25.74C2.504 24.5267 2.88533 23.2613 3.336 21.944C3.57867 21.2853 3.804 20.6787 4.012 20.124C4.22 19.5 4.44533 18.876 4.688 18.252C5.208 17.0387 5.74533 15.8427 6.3 14.664C6.88933 13.416 7.496 12.2547 8.12 11.18C8.46667 10.5907 8.796 10.036 9.108 9.516C9.48933 8.892 9.87067 8.33733 10.252 7.852C10.7027 7.26267 11.136 6.76 11.552 6.344C11.8293 6.06667 12.0893 5.84133 12.332 5.668C12.5053 5.564 12.6613 5.47733 12.8 5.408C12.9733 5.304 13.1467 5.252 13.32 5.252C13.424 5.21733 13.528 5.2 13.632 5.2C13.736 5.23467 13.84 5.26933 13.944 5.304C13.9787 5.33867 14.0133 5.37333 14.048 5.408C14.0827 5.44267 14.1173 5.47733 14.152 5.512C14.256 5.616 14.308 5.72 14.308 5.824C14.308 5.928 14.2907 6.032 14.256 6.136C14.256 6.20533 14.2213 6.292 14.152 6.396C14.0827 6.53467 13.996 6.67333 13.892 6.812C13.58 7.19333 13.0947 7.66133 12.436 8.216C12.02 8.56267 11.5 8.96133 10.876 9.412C10.564 9.62 10.2173 9.88 9.836 10.192C9.55867 10.6427 9.264 11.128 8.952 11.648C8.39733 12.7227 7.82533 13.884 7.236 15.132C6.716 16.276 6.196 17.4547 5.676 18.668C5.572 18.9453 5.468 19.24 5.364 19.552C5.39867 19.5173 5.43333 19.5 5.468 19.5C5.468 19.5 5.48533 19.5 5.52 19.5C5.65867 19.5347 5.832 19.5693 6.04 19.604C6.248 19.6387 6.43867 19.6733 6.612 19.708C6.99333 19.7427 7.37467 19.7427 7.756 19.708C8.55333 19.708 9.316 19.6387 10.044 19.5C10.8067 19.3267 11.5173 19.0667 12.176 18.72C12.8693 18.3733 13.5107 17.94 14.1 17.42ZM10.928 8.372C10.72 8.71867 10.4773 9.11733 10.2 9.568C10.408 9.42933 10.5813 9.308 10.72 9.204C11.3093 8.788 11.8293 8.38933 12.28 8.008C12.5227 7.8 12.748 7.57467 12.956 7.332C13.2333 7.05467 13.4587 6.812 13.632 6.604C13.736 6.46533 13.8053 6.344 13.84 6.24C13.944 6.10133 13.9787 5.98 13.944 5.876C13.944 5.84133 13.9267 5.80667 13.892 5.772C13.8573 5.73733 13.8227 5.72 13.788 5.72C13.788 5.68533 13.7707 5.668 13.736 5.668C13.632 5.63333 13.528 5.63333 13.424 5.668C13.2853 5.70267 13.1467 5.75467 13.008 5.824C12.904 5.89333 12.8 5.99733 12.696 6.136C12.488 6.30933 12.28 6.53467 12.072 6.812C11.76 7.19333 11.3787 7.71333 10.928 8.372ZM5.26 19.968V19.864V19.812C4.39333 22.0307 3.7 24.0933 3.18 26C2.79867 27.352 2.504 28.6 2.296 29.744C2.192 30.4027 2.10533 31.0267 2.036 31.616C2.036 31.7893 2.01867 31.9627 1.984 32.136V32.604C1.94933 33.0547 1.932 33.3667 1.932 33.54C1.86267 34.372 1.828 35.0133 1.828 35.464C1.828 35.88 1.828 36.2093 1.828 36.452C1.86267 36.8333 1.89733 37.128 1.932 37.336C1.932 37.4053 1.932 37.4747 1.932 37.544H1.984C1.984 37.4747 2.01867 37.4053 2.088 37.336C2.12267 37.1973 2.17467 37.0587 2.244 36.92C2.452 36.4347 2.66 35.828 2.868 35.1C2.93733 34.788 3.00667 34.476 3.076 34.164C3.14533 33.852 3.21467 33.54 3.284 33.228C3.388 32.6733 3.50933 32.032 3.648 31.304C3.82133 30.264 4.02933 28.9813 4.272 27.456C4.51467 26 4.70533 24.7173 4.844 23.608C4.91333 23.0187 4.98267 22.36 5.052 21.632C5.12133 21.2853 5.156 20.9733 5.156 20.696C5.19067 20.5227 5.208 20.3493 5.208 20.176C5.208 20.1067 5.22533 20.0373 5.26 19.968ZM24.8116 17.42C24.9503 17.3507 25.0543 17.3853 25.1236 17.524C25.1929 17.628 25.1583 17.7147 25.0196 17.784C24.3609 18.1307 23.6676 18.3733 22.9396 18.512C22.2116 18.6507 21.4836 18.668 20.7556 18.564C20.5476 18.5293 20.3569 18.512 20.1836 18.512C20.0103 18.4773 19.8369 18.4253 19.6636 18.356C19.3169 18.2867 18.9529 18.1827 18.5716 18.044C18.2249 17.8707 17.9129 17.68 17.6356 17.472C17.6009 17.6453 17.5489 17.8187 17.4796 17.992C17.3409 18.4773 17.1156 18.9627 16.8036 19.448C16.6649 19.656 16.5089 19.864 16.3356 20.072C16.0929 20.28 15.8676 20.436 15.6596 20.54C15.5209 20.6093 15.3649 20.644 15.1916 20.644C15.0529 20.6787 14.9143 20.6787 14.7756 20.644C14.6023 20.6093 14.4463 20.5573 14.3076 20.488C14.2036 20.384 14.0996 20.28 13.9956 20.176C13.8916 20.0373 13.8223 19.8987 13.7876 19.76C13.7183 19.6213 13.6663 19.4827 13.6316 19.344C13.5969 19.0667 13.5969 18.772 13.6316 18.46C13.7009 17.94 13.8743 17.4373 14.1516 16.952C14.4289 16.4667 14.7583 16.0507 15.1396 15.704C15.2783 15.6 15.3996 15.5133 15.5036 15.444C15.6423 15.34 15.7809 15.2707 15.9196 15.236C16.0929 15.2013 16.2663 15.2013 16.4396 15.236C16.5089 15.2707 16.5783 15.3053 16.6476 15.34C16.7169 15.3747 16.7863 15.4267 16.8556 15.496C16.9596 15.6 16.9596 15.704 16.8556 15.808C16.7516 15.912 16.6476 15.912 16.5436 15.808C16.5436 15.808 16.5263 15.808 16.4916 15.808C16.4569 15.704 16.4049 15.652 16.3356 15.652C16.2663 15.652 16.1796 15.6693 16.0756 15.704C15.9369 15.808 15.7809 15.9467 15.6076 16.12C15.5036 16.2933 15.3823 16.5013 15.2436 16.744C15.1396 16.9173 15.0356 17.1253 14.9316 17.368C14.7583 17.784 14.6023 18.2 14.4636 18.616C14.3943 18.8587 14.3596 19.084 14.3596 19.292C14.3249 19.5 14.3596 19.6907 14.4636 19.864C14.4983 19.9333 14.5503 20.0027 14.6196 20.072C14.6889 20.1413 14.7583 20.1933 14.8276 20.228C14.9316 20.2627 15.0356 20.2627 15.1396 20.228C15.2436 20.228 15.3476 20.1933 15.4516 20.124C15.6249 20.02 15.7809 19.8813 15.9196 19.708C16.0583 19.5347 16.1796 19.344 16.2836 19.136C16.4223 18.928 16.5263 18.72 16.5956 18.512C16.6649 18.2693 16.7169 18.0267 16.7516 17.784C16.8209 17.576 16.8383 17.368 16.8036 17.16C16.8036 17.0213 16.8036 16.9173 16.8036 16.848C16.7689 16.8133 16.7516 16.7787 16.7516 16.744C16.7169 16.7093 16.6996 16.692 16.6996 16.692V16.64C16.4916 16.3973 16.5263 16.1893 16.8036 16.016C17.0463 15.8427 17.2543 15.8773 17.4276 16.12L17.4796 16.172C17.4796 16.172 17.4969 16.1893 17.5316 16.224C17.5663 16.2933 17.5836 16.3627 17.5836 16.432V16.484C17.6183 16.5187 17.6529 16.5533 17.6876 16.588C17.7569 16.7267 17.8609 16.848 17.9996 16.952C18.2423 17.1947 18.5196 17.4027 18.8316 17.576C19.1089 17.7147 19.4209 17.8533 19.7676 17.992C19.9063 18.0267 20.0623 18.0613 20.2356 18.096C20.4436 18.1307 20.6343 18.1653 20.8076 18.2C21.4663 18.304 22.1423 18.2693 22.8356 18.096C23.5289 17.9573 24.1876 17.732 24.8116 17.42ZM32.1428 17.42C32.2468 17.3507 32.3334 17.3853 32.4028 17.524C32.4721 17.628 32.4374 17.7147 32.2988 17.784C30.9814 18.3387 29.7161 18.9453 28.5028 19.604C27.9134 19.8813 27.3588 20.176 26.8388 20.488C26.8388 20.696 26.8388 20.8867 26.8388 21.06C26.8041 21.476 26.7001 21.8747 26.5268 22.256C26.4228 22.4293 26.3188 22.6027 26.2148 22.776C26.2148 22.776 26.1801 22.8107 26.1108 22.88C26.0761 22.9493 26.0588 22.984 26.0588 22.984L25.9548 23.088L25.8508 23.192C25.6081 23.4693 25.3481 23.7293 25.0708 23.972C24.9321 24.076 24.7761 24.18 24.6028 24.284C24.4294 24.4227 24.2734 24.5267 24.1348 24.596C23.8228 24.804 23.5108 24.9773 23.1988 25.116C22.9908 25.22 22.8001 25.2893 22.6268 25.324C22.4188 25.3587 22.2281 25.376 22.0548 25.376C21.9161 25.3413 21.8121 25.3067 21.7428 25.272C21.6734 25.2373 21.6214 25.2027 21.5868 25.168C21.5174 25.0987 21.4654 25.0293 21.4308 24.96C21.3961 24.856 21.3961 24.7347 21.4308 24.596C21.4308 24.5267 21.4654 24.44 21.5348 24.336C21.6041 24.1627 21.6908 23.9893 21.7948 23.816C21.8988 23.6773 22.0201 23.5387 22.1588 23.4C22.4014 23.1573 22.6614 22.9147 22.9388 22.672C23.4241 22.2907 23.9961 21.8747 24.6548 21.424C25.0361 21.1813 25.4348 20.9387 25.8508 20.696C25.8508 20.488 25.8334 20.28 25.7988 20.072C25.7294 19.76 25.5214 19.1187 25.1748 18.148C25.0014 17.732 24.8801 17.3853 24.8108 17.108C24.6721 16.692 24.6201 16.3107 24.6548 15.964C24.6548 15.5133 24.7414 15.0973 24.9148 14.716C25.0188 14.5427 25.1228 14.3693 25.2268 14.196C25.3654 14.0227 25.4868 13.884 25.5908 13.78C25.9028 13.4333 26.2148 13.1907 26.5268 13.052C26.7348 12.9133 26.9428 12.8267 27.1508 12.792C27.3934 12.7573 27.6188 12.7747 27.8268 12.844C27.9654 12.8787 28.0868 12.948 28.1908 13.052C28.2948 13.1213 28.3641 13.2253 28.3988 13.364C28.5028 13.572 28.5028 13.7973 28.3988 14.04C28.3988 14.144 28.3641 14.248 28.2948 14.352C28.2601 14.4213 28.2081 14.508 28.1388 14.612C28.0694 14.716 27.9654 14.8547 27.8268 15.028C27.6188 15.2707 27.3761 15.5307 27.0988 15.808C26.9254 16.016 26.8041 16.1547 26.7348 16.224C26.5614 16.3627 26.4228 16.484 26.3188 16.588C26.2148 16.692 26.1108 16.692 26.0068 16.588C25.9028 16.4493 25.9028 16.3453 26.0068 16.276L26.0588 16.224C26.1281 16.1893 26.1974 16.1373 26.2668 16.068C26.3014 16.0333 26.3534 15.9813 26.4228 15.912C26.5614 15.808 26.7001 15.6867 26.8388 15.548C27.0468 15.3053 27.2548 15.0453 27.4628 14.768C27.5668 14.6293 27.6534 14.4907 27.7228 14.352C27.7921 14.2827 27.8268 14.2133 27.8268 14.144C27.8614 14.0747 27.8961 14.0053 27.9308 13.936C27.9308 13.7973 27.9134 13.676 27.8788 13.572C27.8441 13.5027 27.7748 13.468 27.6708 13.468C27.5668 13.468 27.4454 13.4853 27.3068 13.52C27.2028 13.5547 27.0814 13.624 26.9428 13.728C26.7001 13.8667 26.4748 14.0747 26.2668 14.352C26.1974 14.456 26.1108 14.5773 26.0068 14.716C25.9028 14.8547 25.8334 14.9933 25.7988 15.132C25.6601 15.3747 25.6081 15.652 25.6428 15.964C25.6428 16.2067 25.6948 16.5013 25.7988 16.848C25.8681 17.056 25.9721 17.368 26.1108 17.784C26.4921 18.72 26.7174 19.4133 26.7868 19.864C26.7868 19.968 26.8041 20.0547 26.8388 20.124C27.3588 19.812 27.8614 19.5347 28.3468 19.292C29.3174 18.772 30.5828 18.148 32.1428 17.42ZM25.6428 21.84C25.7468 21.5973 25.8161 21.3373 25.8508 21.06C25.5041 21.3027 25.1748 21.5107 24.8628 21.684C24.2041 22.1347 23.6494 22.5507 23.1988 22.932C22.8868 23.2093 22.6268 23.452 22.4188 23.66C22.3148 23.7987 22.2108 23.9373 22.1068 24.076C22.0028 24.2147 21.9334 24.3533 21.8988 24.492C21.8641 24.5613 21.8468 24.6307 21.8468 24.7C21.8121 24.7347 21.8121 24.7693 21.8468 24.804C21.8468 24.8387 21.8814 24.8733 21.9508 24.908C21.9854 24.9427 22.0374 24.96 22.1068 24.96C22.2108 24.96 22.3494 24.9427 22.5228 24.908C22.6961 24.8387 22.8521 24.7693 22.9908 24.7C23.3028 24.596 23.5974 24.4227 23.8748 24.18C24.1174 23.972 24.3428 23.7293 24.5508 23.452C24.7588 23.2093 24.9668 22.9493 25.1748 22.672L25.2788 22.568L25.3308 22.464C25.3654 22.3947 25.4001 22.3253 25.4348 22.256C25.5041 22.152 25.5734 22.0133 25.6428 21.84ZM47.7777 17.42C47.8817 17.3507 47.9684 17.368 48.0377 17.472C48.1417 17.576 48.1417 17.68 48.0377 17.784C46.9284 18.4773 46.1484 18.9453 45.6977 19.188C45.3164 19.4307 44.9177 19.656 44.5017 19.864C44.0857 20.1067 43.6871 20.2973 43.3057 20.436C42.8204 20.644 42.3697 20.8 41.9537 20.904C41.7111 20.9387 41.4857 20.956 41.2777 20.956C41.0004 20.9907 40.7404 20.9733 40.4977 20.904C40.2204 20.8347 39.9777 20.7133 39.7697 20.54C39.5964 20.3667 39.4404 20.1413 39.3017 19.864C39.1977 19.656 39.1111 19.4307 39.0417 19.188C38.9724 19.0147 38.9204 18.7893 38.8857 18.512L38.7817 17.836C38.7124 17.5933 38.6604 17.4027 38.6257 17.264C38.5564 17.0907 38.4871 16.9693 38.4177 16.9C38.3831 16.8653 38.3484 16.8307 38.3137 16.796C38.2791 16.796 38.2444 16.796 38.2097 16.796C38.2097 16.796 38.1924 16.796 38.1577 16.796C38.1231 16.7613 38.0884 16.744 38.0537 16.744C37.8804 16.744 37.6897 16.7787 37.4817 16.848C37.3084 16.8827 37.1177 16.9347 36.9097 17.004C36.7017 17.0733 36.4937 17.16 36.2857 17.264C36.1124 17.368 35.9217 17.4893 35.7137 17.628C35.3671 17.836 35.0204 18.096 34.6737 18.408C34.3271 18.6853 33.9804 18.9627 33.6337 19.24C33.4951 19.3787 33.3391 19.5347 33.1657 19.708C32.9924 19.8813 32.8364 20.0547 32.6977 20.228C32.3511 20.5747 32.0564 20.904 31.8137 21.216C31.7444 21.32 31.6577 21.3373 31.5537 21.268C31.4844 21.2333 31.4497 21.1813 31.4497 21.112V21.06C31.3804 20.6093 31.3631 20.124 31.3977 19.604C31.3977 19.3267 31.3977 19.0667 31.3977 18.824C31.4324 18.5467 31.4671 18.304 31.5017 18.096C31.6404 17.1947 31.8831 16.224 32.2297 15.184C32.5417 14.2827 32.9404 13.364 33.4257 12.428C33.6337 12.012 33.8591 11.5787 34.1017 11.128C34.2751 10.7813 34.5177 10.348 34.8297 9.828C35.9044 8.06 37.0657 6.448 38.3137 4.992C39.0764 4.12533 39.7871 3.432 40.4457 2.912C40.8617 2.56533 41.2604 2.25333 41.6417 1.976C42.1271 1.69867 42.5951 1.47333 43.0457 1.3C43.3231 1.196 43.5831 1.12667 43.8257 1.092C44.1377 1.02266 44.4151 1.02266 44.6577 1.092C44.8311 1.12667 44.9871 1.196 45.1257 1.3C45.2644 1.404 45.3857 1.52533 45.4897 1.664C45.5591 1.80267 45.5937 1.95867 45.5937 2.132C45.6284 2.27067 45.6457 2.40933 45.6457 2.548C45.6111 2.79066 45.5591 3.05067 45.4897 3.328C45.3857 3.57067 45.2817 3.81333 45.1777 4.056C45.0737 4.264 44.9524 4.48933 44.8137 4.732C44.7097 4.94 44.5884 5.148 44.4497 5.356C44.2071 5.73733 43.9124 6.136 43.5657 6.552C43.2884 6.89867 42.9591 7.28 42.5777 7.696C42.3004 8.008 41.9711 8.35467 41.5897 8.736C41.1737 9.18667 40.8444 9.55067 40.6017 9.828C39.5271 10.9373 38.1231 12.3067 36.3897 13.936C35.1071 15.184 33.8071 16.4147 32.4897 17.628C32.4204 17.8707 32.3684 18.0787 32.3337 18.252C32.1604 19.0147 32.0217 19.7427 31.9177 20.436C32.4377 19.916 32.9231 19.4307 33.3737 18.98C33.7551 18.6333 34.0844 18.3213 34.3617 18.044C34.7431 17.732 35.1071 17.4547 35.4537 17.212C35.6271 17.0733 35.8177 16.9347 36.0257 16.796C36.2337 16.6573 36.4244 16.536 36.5977 16.432C36.8404 16.2933 37.0657 16.1893 37.2737 16.12C37.5511 16.0507 37.8111 15.9987 38.0537 15.964C38.0537 15.964 38.1057 15.964 38.2097 15.964C38.3137 15.964 38.4004 15.9813 38.4697 16.016C38.6431 16.0507 38.7991 16.12 38.9377 16.224C39.0764 16.2933 39.1977 16.4147 39.3017 16.588C39.3711 16.692 39.4231 16.8133 39.4577 16.952C39.5271 17.1253 39.5964 17.368 39.6657 17.68C39.6657 17.7147 39.7177 17.94 39.8217 18.356C39.9257 18.9453 40.0124 19.344 40.0817 19.552C40.1857 19.968 40.3937 20.2453 40.7057 20.384C40.8444 20.4533 41.0351 20.488 41.2777 20.488C41.4857 20.5227 41.6937 20.5053 41.9017 20.436C42.2831 20.4013 42.6991 20.2973 43.1497 20.124C43.5311 19.9507 43.9297 19.76 44.3457 19.552C44.7271 19.3787 45.1257 19.1707 45.5417 18.928C46.3044 18.4427 47.0497 17.94 47.7777 17.42ZM33.1657 15.496C32.9924 15.9467 32.8537 16.3973 32.7497 16.848C35.4884 14.248 38.0017 11.804 40.2897 9.516C41.0871 8.71867 41.7631 8.02533 42.3177 7.436C42.4217 7.26267 42.5777 7.072 42.7857 6.864C42.9244 6.656 43.0631 6.46533 43.2017 6.292C43.5137 5.876 43.7911 5.47733 44.0337 5.096C44.3111 4.64533 44.5364 4.22933 44.7097 3.848C44.8137 3.60533 44.8831 3.38 44.9177 3.172C44.9871 2.92933 45.0217 2.72133 45.0217 2.548C45.0217 2.30533 44.9697 2.132 44.8657 2.028C44.7964 1.88933 44.6751 1.80267 44.5017 1.768C44.3631 1.73333 44.1724 1.75067 43.9297 1.82C43.7564 1.85467 43.5484 1.924 43.3057 2.028C42.9591 2.16667 42.5604 2.392 42.1097 2.704C41.9364 2.84267 41.7631 2.98133 41.5897 3.12C41.4164 3.25867 41.2257 3.41467 41.0177 3.588C40.6711 3.9 40.3417 4.22933 40.0297 4.576C39.8564 4.74933 39.6831 4.92267 39.5097 5.096C39.3711 5.26933 39.2151 5.46 39.0417 5.668C37.7244 7.19333 36.5977 8.736 35.6617 10.296C35.1417 11.1627 34.6737 12.012 34.2577 12.844C33.8764 13.7107 33.5124 14.5947 33.1657 15.496Z" fill="white"/>
</svg>
